<?xml version="1.0" encoding="utf-8"?>
<!-- Generator: Adobe Illustrator 21.0.2, SVG Export Plug-In . SVG Version: 6.00 Build 0)  -->
<svg version="1.1" id="Слой_1" xmlns="http://www.w3.org/2000/svg" xmlns:xlink="http://www.w3.org/1999/xlink" x="0px" y="0px"
	 width="500px" height="500px" viewBox="0 0 500 500" enable-background="new 0 0 500 500" xml:space="preserve">
<path d="M402.8,2.6H98.3c-52.9,0-95.9,43-95.9,95.9v101.4v37.3v165.9c0,52.9,43,95.9,95.9,95.9h304.5c52.9,0,96-43,96-95.9V237.2
	v-37.4V98.5C498.7,45.6,455.7,2.6,402.8,2.6z M430.3,59.8l11-0.1v11v73.2l-83.8,0.3l-0.3-84.1L430.3,59.8z M179.7,199.9
	c15.9-22,41.7-36.4,70.8-36.4c29.2,0,54.9,14.4,70.8,36.4c1.9,2.7,3.6,5.5,5.3,8.3c7.1,12.6,11.3,27.1,11.3,42.6
	c0,48.2-39.2,87.4-87.4,87.4c-48.2,0-87.4-39.2-87.4-87.4c0-15.5,4.2-30,11.3-42.6C176.1,205.3,177.8,202.5,179.7,199.9z
	 M450.4,403.1c0,26.2-21.4,47.6-47.6,47.6H98.3c-26.2,0-47.6-21.3-47.6-47.6V225.6v-25.7h74.1c-1.9,4.5-3.4,9.2-4.8,14
	c-3.4,11.7-5.2,24.1-5.2,36.9c0,74.8,60.9,135.7,135.7,135.7c74.8,0,135.7-60.9,135.7-135.7c0-12.8-1.9-25.2-5.2-36.9
	c-1.4-4.8-3-9.5-4.8-14h74.1v25.7V403.1z"/>
</svg>
