<?xml version="1.0" encoding="utf-8"?>
<!-- Generator: Adobe Illustrator 21.0.2, SVG Export Plug-In . SVG Version: 6.00 Build 0)  -->
<svg version="1.1" id="_x31_" xmlns="http://www.w3.org/2000/svg" xmlns:xlink="http://www.w3.org/1999/xlink" x="0px" y="0px"
	 width="627.7px" height="500px" viewBox="0 0 627.7 500" style="enable-background:new 0 0 627.7 500;" xml:space="preserve">
<path id="XMLID_47_" d="M625,59.2c-23,10-47.7,16.8-73.6,19.9c26.5-15.6,46.8-40.3,56.4-69.8c-24.8,14.5-52.3,25-81.5,30.7
	C503,15.3,469.7,0,432.8,0C362,0,304.6,56.5,304.6,126.2c0,9.9,1.1,19.5,3.3,28.8C201.3,149.7,106.8,99.5,43.6,23.1
	c-11,18.6-17.4,40.3-17.4,63.5c0,43.8,22.7,82.4,57.1,105.1c-21-0.7-40.8-6.3-58.1-15.8c0,0.5,0,1.1,0,1.6c0,16.2,3.2,31.6,8.8,45.8
	c15.7,39.6,50.9,69.5,94.1,78.1c-10.8,2.8-22.1,4.4-33.8,4.4c-8.2,0-16.3-0.8-24.1-2.3c16.4,50.1,63.7,86.7,119.8,87.7
	c-43.9,33.9-99.2,54.1-159.3,54.1c-10.4,0-20.5-0.6-30.6-1.8C56.8,479.1,124.2,500,196.6,500c200.5,0,323.6-138.9,356.1-282.9
	c5.7-25.5,8.7-51.1,8.7-76.2c0-5.4-0.1-10.9-0.3-16.3C586.1,106.7,607.9,84.5,625,59.2z"/>
</svg>
