<?xml version="1.0" encoding="utf-8"?>
<!-- Generator: Adobe Illustrator 21.0.2, SVG Export Plug-In . SVG Version: 6.00 Build 0)  -->
<svg version="1.1" id="Capa_1" xmlns="http://www.w3.org/2000/svg" xmlns:xlink="http://www.w3.org/1999/xlink" x="0px" y="0px"
	 width="878.5px" height="500px" viewBox="0 0 878.5 500" style="enable-background:new 0 0 878.5 500;" xml:space="preserve">
<g>
	<path d="M871.7,451.6c-1.1-2.3-2.1-4.2-3-5.7c-15.2-27.4-44.3-61-87.2-100.8l-0.9-0.9l-0.5-0.4l-0.5-0.5h-0.5
		c-19.5-18.6-31.8-31-37-37.4c-9.4-12.2-11.6-24.5-6.4-37c3.6-9.4,17.3-29.3,41.1-59.8c12.5-16.1,22.4-29,29.7-38.8
		c52.6-70,75.4-114.7,68.4-134.1l-2.7-4.5c-1.8-2.7-6.5-5.2-14.1-7.5c-7.6-2.3-17.3-2.7-29.2-1.1l-131.4,0.9
		c-2.1-0.8-5.2-0.7-9.1,0.2c-4,0.9-5.9,1.4-5.9,1.4l-2.3,1.1l-1.8,1.4c-1.5,0.9-3.2,2.5-5,4.8c-1.8,2.3-3.3,4.9-4.6,8
		c-14.3,36.8-30.6,71-48.8,102.7c-11.3,18.9-21.6,35.2-31,49.1c-9.4,13.8-17.3,24-23.7,30.6c-6.4,6.5-12.2,11.8-17.3,15.7
		c-5.2,4-9.1,5.6-11.9,5c-2.7-0.6-5.3-1.2-7.8-1.8c-4.3-2.7-7.7-6.5-10.3-11.2c-2.6-4.7-4.3-10.6-5.2-17.8
		c-0.9-7.2-1.4-13.3-1.6-18.5c-0.1-5.2-0.1-12.5,0.2-21.9c0.3-9.4,0.5-15.8,0.5-19.2c0-11.6,0.2-24.1,0.7-37.6
		c0.5-13.5,0.8-24.3,1.1-32.2c0.3-7.9,0.5-16.3,0.5-25.1s-0.5-15.7-1.6-20.8c-1-5-2.7-9.9-4.8-14.6c-2.1-4.7-5.3-8.4-9.4-11
		c-4.1-2.6-9.2-4.6-15.3-6.2c-16.1-3.6-36.7-5.6-61.6-5.9c-56.6-0.6-92.9,3-109.1,11c-6.4,3.3-12.2,7.9-17.3,13.7
		c-5.5,6.7-6.2,10.3-2.3,10.9c18.3,2.7,31.2,9.3,38.8,19.6l2.7,5.5c2.1,4,4.3,11,6.4,21c2.1,10,3.5,21.1,4.1,33.3
		c1.5,22.2,1.5,41.2,0,57c-1.5,15.8-3,28.1-4.3,37s-3.4,16-6.2,21.4c-2.7,5.5-4.6,8.8-5.5,10c-0.9,1.2-1.7,2-2.3,2.3
		c-4,1.5-8.1,2.3-12.3,2.3c-4.3,0-9.4-2.1-15.5-6.4c-6.1-4.3-12.4-10.1-18.9-17.6c-6.5-7.5-13.9-17.9-22.1-31.3
		c-8.2-13.4-16.7-29.2-25.5-47.5l-7.3-13.2c-4.6-8.5-10.8-20.9-18.7-37.2c-7.9-16.3-14.9-32-21-47.2c-2.4-6.4-6.1-11.3-10.9-14.6
		l-2.3-1.4c-1.5-1.2-4-2.5-7.3-3.9c-3.3-1.4-6.8-2.4-10.5-3l-125,0.9c-12.8,0-21.4,2.9-26,8.7l-1.8,2.7c-0.9,1.5-1.4,4-1.4,7.3
		c0,3.3,0.9,7.5,2.7,12.3C21,96.8,40.8,138.2,62.3,178s40.1,71.9,55.9,96.3c15.8,24.3,31.9,47.3,48.4,68.9
		c16.4,21.6,27.3,35.4,32.6,41.5c5.3,6.1,9.5,10.6,12.6,13.7l11.4,10.9c7.3,7.3,18,16,32.2,26.2c14.1,10.2,29.8,20.2,47,30.1
		c17.2,9.9,37.2,17.9,60,24.2c22.8,6.2,45,8.7,66.6,7.5h52.5c10.6-0.9,18.7-4.3,24.2-10l1.8-2.3c1.2-1.8,2.4-4.6,3.4-8.4
		c1.1-3.8,1.6-8,1.6-12.5c-0.3-13.1,0.7-24.9,3-35.4c2.3-10.5,4.9-18.4,7.8-23.7c2.9-5.3,6.2-9.8,9.8-13.5c3.6-3.6,6.2-5.9,7.8-6.6
		c1.5-0.8,2.7-1.3,3.6-1.6c7.3-2.4,15.9-0.1,25.8,7.1c9.9,7.1,19.2,16,27.8,26.5c8.7,10.5,19.1,22.3,31.3,35.4
		c12.2,13.1,22.8,22.8,31.9,29.2l9.1,5.5c6.1,3.7,14,7,23.7,10c9.7,3,18.2,3.8,25.5,2.3l116.8-1.8c11.6,0,20.5-1.9,26.9-5.7
		c6.4-3.8,10.2-8,11.4-12.5c1.2-4.6,1.3-9.7,0.2-15.5C873.8,457.9,872.8,453.8,871.7,451.6z"/>
</g>
</svg>
